<svg height='300px' width='300px'  fill="#000000" xmlns="http://www.w3.org/2000/svg" xmlns:xlink="http://www.w3.org/1999/xlink" version="1.1" x="0px" y="0px" viewBox="0 0 208 176" enable-background="new 0 0 208 176" xml:space="preserve"><g><path fill="#000000" d="M106.3056641,14.2265625c-41.847168,0-75.7719727,33.8574219-75.7719727,75.6230469   c0,0.6582031-0.0161133,1.3154297,0.0253906,1.9677734c6.234375-9.8271484,17.9584961-11.6064453,18.5795898-11.6337891   c4.6806641-27.3842773,28.4941406-48.2265625,57.1669922-48.2265625c18.25,0,34.5214844,8.4492188,45.1572266,21.6479492   c-9.5712891,0.1054688-20.4736328,1.1972656-29.4277344,3.9067383   c-11.9824219,3.2675781-30.0332031,16.340332-33.3022461,18.0527344C85.465332,77.2768555,76.75,78.6757813,76.75,78.6757813   c-7.9350586,0.4663086-21.9980469,2.4707031-31.8994141,5.7578125   C33.0307617,88.359375,30.8447266,98.2851563,30.8447266,98.2851563s-1.5561523,15.4052734-1.3994141,19.4482422   c0.1538086,4.0488281,3.5786133,4.203125,3.5786133,4.203125l18.3579102-0.3378906   c-0.2607422-1.2490234-0.3994141-2.5400391-0.3994141-3.8652344c0-10.4316406,8.487793-18.9189453,18.9194336-18.9189453   c10.4350586,0,18.9208984,8.4873047,18.9208984,18.9189453c0,1.0869141-0.1113281,2.1464844-0.2885742,3.1835938   l67.609375-1.2421875l0.0517578,0.03125c-10.1132813,17.0380859-28.6660156,28.4619141-49.8896484,28.4619141   c-12.9819336,0-24.9702148-4.2734375-34.6352539-11.4921875c0,0-13.3500977,1.4941406-19.4101563-11.9970703   c-6.5136719,0.0019531-13.2280273,0-13.2280273,0c12.6240234,24.2373047,38.0112305,40.7919922,67.2734375,40.7919922   c41.8496094,0,75.7744141-33.8574219,75.7744141-75.6210938C182.0800781,48.0839844,148.1552734,14.2265625,106.3056641,14.2265625   z M148.7988281,78.5214844l-57.5751953,3.1113281c-0.15625-3.7353516,25.6757813-17.8964844,33.6113281-20.8535156   c7.9384766-2.9555664,26.921875-3.2675781,26.921875-3.2675781L148.7988281,78.5214844z"></path><circle fill="#000000" cx="69.9306641" cy="117.7304688" r="15.4404297"></circle></g></svg>